<mxfile host="app.diagrams.net" modified="2024-06-12T20:31:35.100Z" agent="Mozilla/5.0 (Windows NT 10.0; Win64; x64) AppleWebKit/537.36 (KHTML, like Gecko) Chrome/126.0.0.0 Safari/537.36" etag="CjUR4A6QpxqnmjPIi0jJ" version="24.4.8" type="device">
  <diagram name="Page-1" id="iU89ufJvyn9kUz_NqT3_">
    <mxGraphModel dx="1120" dy="1568" grid="1" gridSize="10" guides="1" tooltips="1" connect="1" arrows="1" fold="1" page="1" pageScale="1" pageWidth="850" pageHeight="1100" math="0" shadow="0">
      <root>
        <mxCell id="0" />
        <mxCell id="1" parent="0" />
        <mxCell id="YhTryP7Js5bKCi9-75Nc-1" value="Town" style="rounded=1;whiteSpace=wrap;html=1;" vertex="1" parent="1">
          <mxGeometry x="260" y="-20" width="120" height="60" as="geometry" />
        </mxCell>
        <mxCell id="YhTryP7Js5bKCi9-75Nc-4" value="Sanctuary" style="rounded=1;whiteSpace=wrap;html=1;" vertex="1" parent="1">
          <mxGeometry x="440" y="-20" width="120" height="60" as="geometry" />
        </mxCell>
        <mxCell id="YhTryP7Js5bKCi9-75Nc-5" value="Animal" style="rounded=1;whiteSpace=wrap;html=1;" vertex="1" parent="1">
          <mxGeometry x="620" y="-20" width="120" height="60" as="geometry" />
        </mxCell>
        <mxCell id="YhTryP7Js5bKCi9-75Nc-8" value="Alleys" style="rounded=1;whiteSpace=wrap;html=1;" vertex="1" parent="1">
          <mxGeometry x="430" y="130" width="120" height="60" as="geometry" />
        </mxCell>
        <mxCell id="YhTryP7Js5bKCi9-75Nc-12" value="" style="edgeStyle=entityRelationEdgeStyle;fontSize=12;html=1;endArrow=ERoneToMany;rounded=0;entryX=0;entryY=0.5;entryDx=0;entryDy=0;" edge="1" parent="1" target="YhTryP7Js5bKCi9-75Nc-4">
          <mxGeometry width="100" height="100" relative="1" as="geometry">
            <mxPoint x="380" y="10" as="sourcePoint" />
            <mxPoint x="480" y="-90" as="targetPoint" />
          </mxGeometry>
        </mxCell>
        <mxCell id="YhTryP7Js5bKCi9-75Nc-13" value="" style="edgeStyle=entityRelationEdgeStyle;fontSize=12;html=1;endArrow=ERoneToMany;rounded=0;entryX=0;entryY=0.5;entryDx=0;entryDy=0;" edge="1" parent="1" target="YhTryP7Js5bKCi9-75Nc-5">
          <mxGeometry width="100" height="100" relative="1" as="geometry">
            <mxPoint x="560" y="10" as="sourcePoint" />
            <mxPoint x="660" y="-90" as="targetPoint" />
          </mxGeometry>
        </mxCell>
        <mxCell id="YhTryP7Js5bKCi9-75Nc-15" value="" style="edgeStyle=entityRelationEdgeStyle;fontSize=12;html=1;endArrow=ERoneToMany;rounded=0;entryX=0.5;entryY=0;entryDx=0;entryDy=0;exitX=0.325;exitY=1.017;exitDx=0;exitDy=0;exitPerimeter=0;" edge="1" parent="1" source="YhTryP7Js5bKCi9-75Nc-4">
          <mxGeometry width="100" height="100" relative="1" as="geometry">
            <mxPoint x="500" y="40" as="sourcePoint" />
            <mxPoint x="490" y="130" as="targetPoint" />
          </mxGeometry>
        </mxCell>
        <mxCell id="YhTryP7Js5bKCi9-75Nc-16" value="&lt;div&gt;Keeper&lt;/div&gt;" style="rounded=1;whiteSpace=wrap;html=1;" vertex="1" parent="1">
          <mxGeometry x="620" y="130" width="120" height="60" as="geometry" />
        </mxCell>
        <mxCell id="YhTryP7Js5bKCi9-75Nc-18" value="Animal_Keeper" style="rounded=1;whiteSpace=wrap;html=1;" vertex="1" parent="1">
          <mxGeometry x="810" y="-20" width="120" height="60" as="geometry" />
        </mxCell>
        <mxCell id="YhTryP7Js5bKCi9-75Nc-19" value="" style="edgeStyle=entityRelationEdgeStyle;fontSize=12;html=1;endArrow=ERoneToMany;rounded=0;entryX=0.5;entryY=1;entryDx=0;entryDy=0;" edge="1" parent="1" target="YhTryP7Js5bKCi9-75Nc-18">
          <mxGeometry width="100" height="100" relative="1" as="geometry">
            <mxPoint x="740" y="170" as="sourcePoint" />
            <mxPoint x="840" y="70" as="targetPoint" />
          </mxGeometry>
        </mxCell>
        <mxCell id="YhTryP7Js5bKCi9-75Nc-20" value="" style="edgeStyle=entityRelationEdgeStyle;fontSize=12;html=1;endArrow=ERoneToMany;rounded=0;" edge="1" parent="1" target="YhTryP7Js5bKCi9-75Nc-18">
          <mxGeometry width="100" height="100" relative="1" as="geometry">
            <mxPoint x="740" y="10" as="sourcePoint" />
            <mxPoint x="840" y="-90" as="targetPoint" />
          </mxGeometry>
        </mxCell>
      </root>
    </mxGraphModel>
  </diagram>
</mxfile>
